<?xml version="1.0" encoding="iso-8859-1"?>
<!-- Generator: Adobe Illustrator 18.1.1, SVG Export Plug-In . SVG Version: 6.00 Build 0)  -->
<svg xmlns="http://www.w3.org/2000/svg" xmlns:xlink="http://www.w3.org/1999/xlink" version="1.1" id="Capa_1" x="0px" y="0px" viewBox="0 0 28.65 28.65" style="enable-background:new 0 0 28.65 28.65;" xml:space="preserve" width="512px" height="512px">
<g>
	<g id="c85_disc">
		<path d="M14.328,0C6.414,0,0.001,6.416,0.001,14.325c0,7.914,6.413,14.325,14.327,14.325c7.909,0,14.322-6.411,14.322-14.325    C28.65,6.416,22.236,0,14.328,0z M14.328,20.048c-3.158,0-5.725-2.565-5.725-5.723c0-3.153,2.566-5.722,5.725-5.722    c3.153,0,5.72,2.568,5.72,5.722C20.048,17.482,17.48,20.048,14.328,20.048z M16.939,8.426c-0.805-0.62-2.612-0.681-2.612-0.681V1    c3.446-0.312,5.892,1.546,5.892,1.546L16.939,8.426z" fill="#FFFFFF"/>
		<path d="M14.328,9.21c-2.824,0-5.12,2.297-5.12,5.115c0,2.822,2.296,5.116,5.12,5.116c2.82,0,5.115-2.294,5.115-5.116    C19.443,11.507,17.147,9.21,14.328,9.21z M14.328,16.868c-1.405,0-2.543-1.138-2.543-2.543c0-1.402,1.138-2.54,2.543-2.54    c1.403,0,2.541,1.138,2.541,2.54C16.868,15.73,15.731,16.868,14.328,16.868z" fill="#FFFFFF"/>
	</g>
	<g id="Capa_1_68_">
	</g>
</g>
<g>
</g>
<g>
</g>
<g>
</g>
<g>
</g>
<g>
</g>
<g>
</g>
<g>
</g>
<g>
</g>
<g>
</g>
<g>
</g>
<g>
</g>
<g>
</g>
<g>
</g>
<g>
</g>
<g>
</g>
</svg>
